<?xml version="1.0" encoding="UTF-8"?>
<svg xmlns="http://www.w3.org/2000/svg" xmlns:xlink="http://www.w3.org/1999/xlink" width="512px" height="512px" viewBox="0 0 512 512" version="1.1">
<g id="surface1">
<path style=" stroke:none;fill-rule:nonzero;fill:rgb(0%,54.901963%,84.705883%);fill-opacity:1;" d="M 148 164.5 C 148.246094 164.996094 148.246094 164.996094 148.5 165.5 C 149 165.492188 149.503906 165.484375 150.019531 165.472656 C 154.75 165.394531 159.480469 165.320312 164.210938 165.253906 C 166.644531 165.21875 169.074219 165.179688 171.507812 165.136719 C 173.855469 165.097656 176.203125 165.0625 178.550781 165.03125 C 179.445312 165.019531 180.339844 165.003906 181.234375 164.988281 C 182.488281 164.964844 183.742188 164.949219 185 164.933594 C 185.367188 164.925781 185.738281 164.914062 186.117188 164.90625 C 188.136719 164.890625 189.707031 165.039062 191.5 166 C 192.5 167.203125 192.5 167.203125 193.5 168.75 C 193.890625 169.34375 194.285156 169.933594 194.679688 170.523438 C 194.890625 170.84375 195.101562 171.164062 195.320312 171.492188 C 196.542969 173.308594 197.835938 175.074219 199.125 176.84375 C 199.683594 177.617188 200.242188 178.386719 200.804688 179.160156 C 201.367188 179.941406 201.933594 180.71875 202.5 181.5 C 205.941406 186.246094 209.367188 191.003906 212.742188 195.804688 C 214.558594 198.382812 216.398438 200.945312 218.25 203.5 C 220.640625 206.796875 223 210.113281 225.347656 213.445312 C 228.210938 217.507812 231.089844 221.558594 234.007812 225.585938 C 234.546875 226.328125 235.085938 227.070312 235.625 227.8125 C 235.894531 228.183594 236.164062 228.554688 236.4375 228.933594 C 238.917969 232.367188 241.34375 235.832031 243.753906 239.3125 C 244.03125 239.714844 244.3125 240.117188 244.601562 240.53125 C 244.847656 240.886719 245.09375 241.242188 245.347656 241.609375 C 246.007812 242.558594 246.007812 242.558594 247 243.5 C 247.21875 243.164062 247.4375 242.832031 247.664062 242.484375 C 250.429688 238.296875 253.3125 234.195312 256.21875 230.101562 C 257.480469 228.320312 258.742188 226.535156 260 224.75 C 261.488281 222.640625 262.976562 220.535156 264.464844 218.429688 C 267.152344 214.625 269.832031 210.816406 272.5 207 C 276.675781 201.03125 280.867188 195.074219 285.109375 189.148438 C 286.71875 186.898438 288.3125 184.636719 289.90625 182.375 C 296.035156 173.671875 296.035156 173.671875 298.8125 169.992188 C 299.523438 169.03125 299.523438 169.03125 299.949219 167.976562 C 300.515625 166.804688 300.914062 166.242188 302 165.5 C 304.804688 164.957031 307.589844 165.011719 310.4375 165.03125 C 311.296875 165.023438 312.152344 165.019531 313.011719 165.007812 C 314.855469 164.992188 316.699219 164.988281 318.542969 164.996094 C 321.089844 165 323.636719 164.988281 326.1875 164.972656 C 345.0625 164.851562 345.0625 164.851562 352 165.5 C 349.875 169.597656 347.460938 173.433594 344.9375 177.296875 C 343.566406 179.390625 342.230469 181.5 340.90625 183.625 C 340.699219 183.957031 340.492188 184.289062 340.277344 184.632812 C 339.019531 186.65625 337.773438 188.683594 336.53125 190.71875 C 334.679688 193.742188 332.75 196.714844 330.796875 199.675781 C 330.570312 200.023438 330.34375 200.367188 330.109375 200.722656 C 329.910156 201.03125 329.707031 201.335938 329.5 201.652344 C 328.917969 202.570312 328.917969 202.570312 328.5 204 C 328.171875 204 327.839844 204 327.5 204 C 327.367188 204.363281 327.230469 204.722656 327.09375 205.09375 C 326.503906 206.488281 325.820312 207.691406 325.015625 208.96875 C 324.585938 209.65625 324.585938 209.65625 324.148438 210.355469 C 323.851562 210.824219 323.554688 211.296875 323.25 211.78125 C 322.660156 212.71875 322.070312 213.65625 321.484375 214.59375 C 321.09375 215.214844 321.09375 215.214844 320.695312 215.847656 C 320.070312 216.878906 319.523438 217.914062 319 219 C 318.5 220 318.5 220 317.8125 220.667969 C 316.863281 221.640625 316.203125 222.65625 315.480469 223.804688 C 315.046875 224.488281 315.046875 224.488281 314.609375 225.1875 C 314.152344 225.914062 314.152344 225.914062 313.6875 226.65625 C 313.050781 227.664062 312.414062 228.671875 311.777344 229.679688 C 311.46875 230.171875 311.164062 230.660156 310.84375 231.160156 C 309.824219 232.78125 308.789062 234.390625 307.75 236 C 304.953125 240.34375 302.1875 244.703125 299.414062 249.0625 C 297.945312 251.375 296.472656 253.6875 295 256 C 293.261719 258.730469 291.523438 261.464844 289.785156 264.195312 C 288.023438 266.964844 286.261719 269.734375 284.5 272.5 C 284.1875 272.992188 283.875 273.484375 283.550781 273.988281 C 279.066406 281.027344 274.53125 288.03125 269.953125 295.015625 C 267.675781 298.492188 265.414062 301.984375 263.160156 305.476562 C 262.429688 306.609375 261.695312 307.742188 260.960938 308.871094 C 260.578125 309.460938 260.578125 309.460938 260.1875 310.058594 C 259.699219 310.816406 259.210938 311.570312 258.71875 312.324219 C 257.539062 314.121094 257.539062 314.121094 256.5 316 C 256.171875 316 255.839844 316 255.5 316 C 255.335938 316.328125 255.171875 316.660156 255 317 C 252.007812 313.09375 249.1875 309.128906 246.5 305 C 243.933594 308.347656 241.488281 311.726562 239.171875 315.25 C 237.714844 317.445312 236.199219 319.59375 234.6875 321.75 C 234.386719 322.175781 234.089844 322.605469 233.777344 323.042969 C 232.851562 324.363281 231.925781 325.683594 231 327 C 227.285156 332.289062 223.585938 337.589844 219.945312 342.933594 C 217.726562 346.179688 215.476562 349.402344 213.21875 352.621094 C 210.992188 355.796875 208.773438 358.972656 206.5625 362.15625 C 206.230469 362.632812 205.898438 363.113281 205.554688 363.605469 C 203.84375 366.066406 202.136719 368.523438 200.425781 370.984375 C 199.742188 371.96875 199.058594 372.953125 198.375 373.9375 C 198.042969 374.414062 197.710938 374.890625 197.371094 375.382812 C 195.078125 378.675781 192.769531 381.957031 190.449219 385.230469 C 188.929688 387.375 187.453125 389.542969 186.042969 391.765625 C 185.5 392.5 185.5 392.5 184.5 393 C 183.726562 393.046875 182.953125 393.0625 182.179688 393.058594 C 181.6875 393.0625 181.199219 393.0625 180.695312 393.0625 C 180.15625 393.058594 179.617188 393.058594 179.0625 393.058594 C 178.214844 393.058594 178.214844 393.058594 177.347656 393.058594 C 175.46875 393.054688 173.59375 393.054688 171.714844 393.046875 C 170.414062 393.046875 169.117188 393.046875 167.816406 393.046875 C 164.742188 393.046875 161.667969 393.042969 158.597656 393.035156 C 155.097656 393.03125 151.597656 393.027344 148.097656 393.023438 C 140.898438 393.019531 133.699219 393.011719 126.5 393 C 126.699219 392.734375 126.902344 392.46875 127.109375 392.191406 C 127.375 391.839844 127.640625 391.484375 127.914062 391.121094 C 128.308594 390.597656 128.308594 390.597656 128.710938 390.0625 C 129.933594 388.417969 131.105469 386.742188 132.28125 385.0625 C 136.621094 378.886719 141.054688 372.777344 145.527344 366.699219 C 147.21875 364.390625 148.886719 362.066406 150.546875 359.738281 C 152.25 357.347656 153.96875 354.96875 155.6875 352.59375 C 157.863281 349.585938 160.019531 346.566406 162.15625 343.53125 C 164.054688 340.835938 165.96875 338.152344 167.914062 335.492188 C 171.472656 330.617188 175 325.722656 178.46875 320.78125 C 180.917969 317.296875 183.429688 313.863281 185.960938 310.441406 C 189.257812 305.984375 192.460938 301.472656 195.652344 296.945312 C 195.902344 296.59375 196.148438 296.238281 196.40625 295.875 C 196.65625 295.519531 196.90625 295.167969 197.164062 294.800781 C 199.027344 292.15625 200.914062 289.527344 202.8125 286.90625 C 203.214844 286.347656 203.214844 286.347656 203.628906 285.777344 C 204.671875 284.332031 205.71875 282.890625 206.765625 281.449219 C 207.46875 280.476562 208.171875 279.503906 208.875 278.53125 C 209.085938 278.246094 209.292969 277.957031 209.507812 277.664062 C 210.390625 276.4375 211.019531 275.441406 211.5 274 C 210.085938 271.113281 208.171875 268.597656 206.25 266.03125 C 205.941406 265.617188 205.636719 265.203125 205.316406 264.777344 C 204.382812 263.515625 203.441406 262.257812 202.5 261 C 202.222656 260.628906 201.945312 260.257812 201.660156 259.875 C 199.570312 257.082031 197.472656 254.292969 195.375 251.503906 C 192.785156 248.0625 190.230469 244.601562 187.683594 241.136719 C 185.800781 238.582031 183.90625 236.035156 182 233.5 C 177.855469 227.992188 173.78125 222.429688 169.703125 216.867188 C 166.332031 211.992188 166.332031 211.992188 162.5 207.5 C 162.074219 206.871094 161.660156 206.234375 161.25 205.59375 C 159.527344 202.976562 157.625 200.519531 155.699219 198.050781 C 154.480469 196.476562 153.316406 194.875 152.175781 193.242188 C 151.375 192.363281 150.582031 191.96875 149.5 191.5 C 149.746094 191.003906 149.746094 191.003906 150 190.5 C 145.363281 184.1875 145.363281 184.1875 140.6875 177.90625 C 140.347656 177.449219 140.003906 176.996094 139.652344 176.523438 C 138.742188 175.320312 137.828125 174.125 136.910156 172.929688 C 136.636719 172.566406 136.359375 172.207031 136.078125 171.835938 C 135.535156 171.125 134.992188 170.417969 134.449219 169.714844 C 134.203125 169.390625 133.957031 169.066406 133.703125 168.734375 C 133.484375 168.449219 133.261719 168.160156 133.035156 167.867188 C 132.5 167 132.5 167 132 165 C 139.921875 165.246094 139.921875 165.246094 148 165.5 C 148 165.171875 148 164.839844 148 164.5 Z M 148 164.5 "/>
<path style=" stroke:none;fill-rule:nonzero;fill:rgb(0%,54.901963%,84.313726%);fill-opacity:1;" d="M 424.21875 84 C 427.21875 85.710938 429.144531 88.355469 430.5 91.5 C 431.398438 95.71875 430.96875 99.359375 428.871094 103.132812 C 426.824219 106.152344 424.386719 107.371094 421 108.5 C 420.050781 108.535156 419.105469 108.542969 418.15625 108.53125 C 417.660156 108.527344 417.164062 108.523438 416.648438 108.515625 C 416.082031 108.507812 416.082031 108.507812 415.5 108.5 C 412.3125 114.046875 409.152344 119.605469 406.03125 125.1875 C 396.449219 142.324219 396.449219 142.324219 392.710938 148.578125 C 391.339844 150.882812 390.050781 153.222656 388.777344 155.578125 C 387.53125 157.859375 386.25 160.117188 384.96875 162.375 C 384.6875 162.871094 384.40625 163.367188 384.117188 163.878906 C 382.71875 166.351562 381.316406 168.824219 379.914062 171.292969 C 376.511719 177.292969 373.160156 183.316406 369.832031 189.359375 C 367.605469 193.402344 365.367188 197.4375 363.09375 201.453125 C 362.398438 202.679688 361.707031 203.90625 361.015625 205.132812 C 360.746094 205.601562 360.480469 206.074219 360.203125 206.5625 C 359.652344 207.539062 359.101562 208.515625 358.550781 209.492188 C 357.097656 212.066406 355.636719 214.636719 354.171875 217.203125 C 353.878906 217.726562 353.582031 218.246094 353.277344 218.78125 C 352.707031 219.78125 352.140625 220.777344 351.570312 221.777344 C 351.183594 222.453125 351.183594 222.453125 350.789062 223.144531 C 350.453125 223.738281 350.453125 223.738281 350.105469 224.34375 C 349.480469 225.535156 348.980469 226.742188 348.5 228 C 348.171875 228 347.839844 228 347.5 228 C 347.363281 228.359375 347.226562 228.722656 347.085938 229.09375 C 346.515625 230.464844 345.863281 231.722656 345.132812 233.023438 C 344.859375 233.511719 344.585938 234 344.304688 234.503906 C 344.007812 235.027344 343.710938 235.554688 343.40625 236.09375 C 342.941406 236.921875 342.941406 236.921875 342.464844 237.769531 C 339.652344 242.753906 336.792969 247.710938 333.925781 252.664062 C 332.105469 255.808594 330.304688 258.960938 328.503906 262.117188 C 323.363281 271.128906 318.210938 280.128906 312.9375 289.0625 C 312.675781 289.503906 312.417969 289.945312 312.148438 290.398438 C 311.902344 290.816406 311.65625 291.230469 311.402344 291.660156 C 311.167969 292.054688 310.9375 292.453125 310.695312 292.859375 C 310.234375 293.617188 309.75 294.359375 309.246094 295.089844 C 307.859375 297.101562 307.859375 297.101562 307.40625 299.460938 C 308.28125 301.734375 309.582031 303.628906 310.96875 305.625 C 311.246094 306.03125 311.519531 306.441406 311.804688 306.859375 C 313.273438 309.035156 313.273438 309.035156 315 311 C 315.511719 311.855469 316.011719 312.722656 316.5 313.59375 C 318.105469 316.386719 319.839844 319.066406 321.644531 321.734375 C 323.257812 324.125 324.804688 326.550781 326.3125 329.011719 C 326.925781 330.0625 326.925781 330.0625 328 330.5 C 328 330.996094 328 331.488281 328 332 C 328.328125 332 328.660156 332 329 332 C 329.402344 332.847656 329.402344 332.847656 329.8125 333.710938 C 331.027344 336.132812 332.472656 338.367188 333.96875 340.625 C 334.554688 341.515625 335.140625 342.410156 335.726562 343.300781 C 336.019531 343.75 336.316406 344.203125 336.625 344.667969 C 337.964844 346.710938 339.296875 348.761719 340.625 350.8125 C 344.570312 356.882812 348.535156 362.941406 352.5 369 C 354.660156 372.300781 356.816406 375.601562 358.976562 378.902344 C 360.304688 380.9375 361.640625 382.972656 362.976562 385.003906 C 363.578125 385.917969 364.179688 386.835938 364.78125 387.75 C 365.058594 388.167969 365.335938 388.585938 365.621094 389.019531 C 365.871094 389.398438 366.121094 389.78125 366.375 390.171875 C 366.59375 390.503906 366.8125 390.832031 367.039062 391.175781 C 367.5 392 367.5 392 367.5 393 C 360.089844 393.164062 352.679688 393.289062 345.269531 393.363281 C 341.824219 393.398438 338.386719 393.449219 334.945312 393.527344 C 331.621094 393.605469 328.296875 393.644531 324.976562 393.664062 C 323.707031 393.675781 322.441406 393.703125 321.175781 393.738281 C 311.53125 394.015625 311.53125 394.015625 309 392.335938 C 307.390625 390.753906 306.386719 388.96875 305.460938 386.929688 C 304.660156 385.320312 303.574219 383.941406 302.5 382.5 C 301.265625 380.773438 300.035156 379.046875 298.804688 377.320312 C 295.664062 372.917969 292.503906 368.535156 289.335938 364.15625 C 287.703125 361.898438 286.070312 359.636719 284.4375 357.375 C 283.078125 355.496094 281.71875 353.613281 280.359375 351.734375 C 277.679688 348.03125 275.011719 344.324219 272.375 340.59375 C 272.007812 340.070312 272.007812 340.070312 271.628906 339.539062 C 270.457031 337.878906 269.296875 336.210938 268.160156 334.523438 C 267.953125 334.21875 267.746094 333.914062 267.53125 333.597656 C 266.976562 332.773438 266.421875 331.949219 265.871094 331.125 C 265.582031 330.753906 265.296875 330.382812 265 330 C 264.671875 330 264.339844 330 264 330 C 264 329.339844 264 328.679688 264 328 C 264.328125 328 264.660156 328 265 328 C 265.199219 327.453125 265.199219 327.453125 265.402344 326.898438 C 265.996094 325.507812 266.695312 324.390625 267.5625 323.15625 C 268.679688 321.710938 268.679688 321.710938 269 320 C 269.308594 319.699219 269.617188 319.402344 269.9375 319.09375 C 271.0625 318.074219 271.0625 318.074219 271.5 316.75 C 272 315.5 272 315.5 272.875 314.664062 C 274.351562 313.136719 275.402344 311.445312 276.53125 309.65625 C 277.023438 308.886719 277.515625 308.113281 278.007812 307.34375 C 278.382812 306.757812 278.382812 306.757812 278.761719 306.15625 C 279.664062 304.742188 280.578125 303.332031 281.492188 301.925781 C 283.832031 298.328125 286.140625 294.714844 288.4375 291.09375 C 290.6875 287.550781 292.957031 284.015625 295.25 280.5 C 298.40625 275.664062 301.507812 270.792969 304.601562 265.914062 C 306.136719 263.496094 307.679688 261.074219 309.21875 258.65625 C 310.039062 257.367188 310.859375 256.078125 311.679688 254.789062 C 312.246094 253.898438 312.816406 253.007812 313.382812 252.113281 C 315.207031 249.246094 317.03125 246.375 318.84375 243.5 C 319.097656 243.097656 319.355469 242.691406 319.617188 242.273438 C 320.910156 240.226562 322.203125 238.179688 323.492188 236.125 C 328.386719 228.347656 333.371094 220.625 338.5 213 C 338.335938 212.671875 338.171875 212.339844 338 212 C 338.496094 212 338.988281 212 339.5 212 C 339.609375 211.675781 339.722656 211.347656 339.835938 211.015625 C 340.734375 208.964844 341.917969 207.15625 343.125 205.28125 C 343.386719 204.871094 343.648438 204.460938 343.917969 204.039062 C 344.480469 203.152344 345.046875 202.269531 345.609375 201.390625 C 346.828125 199.484375 348.039062 197.578125 349.253906 195.671875 C 350.390625 193.882812 351.527344 192.097656 352.664062 190.3125 C 353.523438 188.960938 354.382812 187.613281 355.242188 186.265625 C 355.675781 185.582031 355.675781 185.582031 356.121094 184.882812 C 356.699219 183.972656 357.28125 183.0625 357.859375 182.148438 C 360.402344 178.148438 362.960938 174.152344 365.519531 170.15625 C 368.226562 165.933594 370.921875 161.699219 373.609375 157.460938 C 376.933594 152.214844 380.296875 146.996094 383.699219 141.800781 C 385.796875 138.59375 387.859375 135.363281 389.90625 132.125 C 392.59375 127.875 395.359375 123.679688 398.15625 119.5 C 401.726562 114.171875 401.726562 114.171875 405.25 108.8125 C 405.574219 108.3125 405.898438 107.816406 406.234375 107.300781 C 407.308594 105.480469 407.308594 105.480469 408 103.5 C 407.597656 102.246094 407.597656 102.246094 406.84375 101.0625 C 405.097656 97.835938 404.675781 95.234375 405.566406 91.671875 C 406.5625 88.980469 408.332031 86.390625 410.5 84.5 C 411.242188 84.253906 411.242188 84.253906 412 84 C 412.460938 83.828125 412.921875 83.660156 413.398438 83.484375 C 416.980469 82.402344 420.785156 82.457031 424.21875 84 Z M 424.21875 84 "/>
<path style=" stroke:none;fill-rule:nonzero;fill:rgb(3.529412%,39.215687%,60.392159%);fill-opacity:1;" d="M 352.5 370 C 354.609375 371.859375 355.972656 374.148438 357.46875 376.5 C 358.042969 377.394531 358.617188 378.289062 359.191406 379.183594 C 359.632812 379.875 359.632812 379.875 360.085938 380.582031 C 361.007812 382.007812 361.9375 383.429688 362.871094 384.847656 C 363.171875 385.300781 363.46875 385.757812 363.777344 386.226562 C 364.355469 387.105469 364.9375 387.984375 365.519531 388.863281 C 365.777344 389.261719 366.039062 389.65625 366.304688 390.066406 C 366.652344 390.589844 366.652344 390.589844 367.007812 391.128906 C 367.5 392 367.5 392 367.5 393 C 360.046875 393.082031 352.59375 393.144531 345.136719 393.179688 C 341.675781 393.199219 338.214844 393.222656 334.753906 393.265625 C 331.414062 393.300781 328.078125 393.324219 324.738281 393.332031 C 323.460938 393.339844 322.1875 393.351562 320.914062 393.371094 C 319.128906 393.394531 317.347656 393.398438 315.5625 393.398438 C 315.035156 393.410156 314.503906 393.421875 313.960938 393.433594 C 310.445312 393.402344 310.445312 393.402344 309.101562 392.195312 C 308.402344 391.226562 308.402344 391.226562 307.5 389.5 C 307.664062 389.171875 307.828125 388.839844 308 388.5 C 308.300781 388.988281 308.601562 389.476562 308.914062 389.980469 C 309.789062 391.019531 310.285156 391.445312 311.617188 391.777344 C 313.046875 391.871094 314.449219 391.871094 315.878906 391.839844 C 316.421875 391.839844 316.960938 391.839844 317.519531 391.84375 C 319.308594 391.839844 321.097656 391.816406 322.882812 391.792969 C 324.125 391.789062 325.367188 391.78125 326.605469 391.78125 C 329.871094 391.769531 333.136719 391.738281 336.398438 391.707031 C 339.730469 391.671875 343.0625 391.660156 346.394531 391.648438 C 352.929688 391.613281 359.464844 391.5625 366 391.5 C 365.058594 390.085938 364.113281 388.667969 363.171875 387.253906 C 362.90625 386.859375 362.644531 386.464844 362.371094 386.054688 C 360.878906 383.816406 359.382812 381.574219 357.882812 379.335938 C 352.5 371.289062 352.5 371.289062 352.5 370 Z M 352.5 370 "/>
<path style=" stroke:none;fill-rule:nonzero;fill:rgb(3.921569%,39.607844%,60.392159%);fill-opacity:1;" d="M 132.5 385 C 132.5 386.5 132.5 386.5 129 391.5 C 147.644531 391.5 166.289062 391.5 185.5 391.5 C 185.5 391.828125 185.5 392.160156 185.5 392.5 C 184.289062 393.105469 183.53125 393.0625 182.179688 393.058594 C 181.6875 393.0625 181.199219 393.0625 180.695312 393.0625 C 179.886719 393.058594 179.886719 393.058594 179.0625 393.058594 C 178.214844 393.058594 178.214844 393.058594 177.347656 393.058594 C 175.46875 393.054688 173.59375 393.054688 171.714844 393.046875 C 170.414062 393.046875 169.117188 393.046875 167.816406 393.046875 C 164.742188 393.046875 161.667969 393.042969 158.597656 393.035156 C 155.097656 393.03125 151.597656 393.027344 148.097656 393.023438 C 140.898438 393.019531 133.699219 393.011719 126.5 393 C 128.5 390.332031 130.5 387.667969 132.5 385 Z M 132.5 385 "/>
<path style=" stroke:none;fill-rule:nonzero;fill:rgb(0%,59.215689%,90.588236%);fill-opacity:1;" d="M 130 389.5 C 130.164062 389.828125 130.328125 390.160156 130.5 390.5 C 148.15625 390.664062 165.808594 390.828125 184 391 C 184 391.164062 184 391.328125 184 391.5 C 156.527344 391.746094 156.527344 391.746094 128.5 392 C 128.996094 391.175781 129.488281 390.351562 130 389.5 Z M 130 389.5 "/>
<path style=" stroke:none;fill-rule:nonzero;fill:rgb(1.568628%,47.450981%,72.549021%);fill-opacity:1;" d="M 268.5 322 C 268.664062 322.328125 268.828125 322.660156 269 323 C 268.40625 324.289062 267.710938 325.507812 267.015625 326.746094 C 266.433594 328.164062 266.46875 328.597656 267 330 C 267.261719 330.929688 267.261719 330.929688 267.53125 331.875 C 267.761719 332.679688 267.761719 332.679688 268 333.5 C 264.375 329.875 264.375 329.875 264 328 C 264.328125 328 264.660156 328 265 328 C 265.113281 327.660156 265.226562 327.320312 265.34375 326.96875 C 266.179688 325.101562 267.277344 323.640625 268.5 322 Z M 268.5 322 "/>
<path style=" stroke:none;fill-rule:nonzero;fill:rgb(1.960784%,41.960785%,64.705884%);fill-opacity:1;" d="M 208 267.5 C 209.429688 268.847656 210.738281 270.222656 211.9375 271.78125 C 212.152344 272.058594 212.367188 272.339844 212.589844 272.625 C 213 273.5 213 273.5 212.953125 274.414062 C 212.300781 275.980469 211.308594 277.257812 210.28125 278.59375 C 210.078125 278.867188 209.875 279.140625 209.664062 279.421875 C 208.136719 281.433594 208.136719 281.433594 207 282 C 208.023438 279.78125 209.460938 277.867188 210.867188 275.875 C 211.652344 274.542969 211.652344 274.542969 211.183594 273.191406 C 210.570312 272.121094 209.941406 271.136719 209.1875 270.15625 C 208 268.609375 208 268.609375 208 267.5 Z M 208 267.5 "/>
<path style=" stroke:none;fill-rule:nonzero;fill:rgb(0.784314%,52.549022%,80.784315%);fill-opacity:1;" d="M 321 323 C 323.726562 325.160156 326.085938 327.144531 326.875 330.6875 C 326.9375 331.335938 326.9375 331.335938 327 332 C 325.351562 330.460938 324.121094 328.816406 322.875 326.9375 C 322.523438 326.410156 322.167969 325.882812 321.804688 325.339844 C 321 324 321 324 321 323 Z M 321 323 "/>
<path style=" stroke:none;fill-rule:nonzero;fill:rgb(2.352941%,42.745098%,65.098041%);fill-opacity:1;" d="M 407.5 105.5 C 407.5 107.277344 407.113281 107.707031 406.09375 109.125 C 405.105469 110.542969 404.296875 111.847656 403.6875 113.46875 C 403 115 403 115 401.90625 115.71875 C 401.605469 115.8125 401.308594 115.90625 401 116 C 401.808594 113.617188 403.125 111.6875 404.53125 109.625 C 404.761719 109.28125 404.992188 108.941406 405.226562 108.585938 C 406.914062 106.085938 406.914062 106.085938 407.5 105.5 Z M 407.5 105.5 "/>
<path style=" stroke:none;fill-rule:nonzero;fill:rgb(1.176471%,47.450981%,72.549021%);fill-opacity:1;" d="M 204 184.5 C 205.960938 186.351562 207.472656 188.273438 209 190.5 C 208.835938 190.828125 208.671875 191.160156 208.5 191.5 C 206.5625 189.992188 205.050781 188.773438 204 186.5 C 204 185.839844 204 185.179688 204 184.5 Z M 204 184.5 "/>
<path style=" stroke:none;fill-rule:nonzero;fill:rgb(1.568628%,43.921569%,67.450982%);fill-opacity:1;" d="M 193 380 C 193 381.640625 192.835938 381.914062 191.90625 383.179688 C 191.679688 383.488281 191.453125 383.800781 191.222656 384.121094 C 190.984375 384.441406 190.746094 384.761719 190.5 385.09375 C 190.261719 385.421875 190.023438 385.746094 189.777344 386.085938 C 189.1875 386.890625 188.59375 387.695312 188 388.5 C 187.695312 387.601562 187.695312 387.601562 187.5 386.5 C 188.40625 384.875 188.40625 384.875 189.5 383.5 C 189.828125 383.5 190.160156 383.5 190.5 383.5 C 191.179688 382.722656 191.179688 382.722656 191.8125 381.75 C 192.035156 381.425781 192.257812 381.101562 192.488281 380.765625 C 192.65625 380.511719 192.824219 380.261719 193 380 Z M 193 380 "/>
<path style=" stroke:none;fill-rule:nonzero;fill:rgb(0%,58.431375%,89.803922%);fill-opacity:1;" d="M 311 257.5 C 311.335938 258.390625 311.335938 258.390625 311.5 259.5 C 310.945312 260.40625 310.945312 260.40625 310.125 261.28125 C 309.859375 261.570312 309.59375 261.859375 309.320312 262.15625 C 308.554688 262.945312 307.78125 263.726562 307 264.5 C 307.664062 262.6875 308.472656 261.183594 309.5625 259.59375 C 309.832031 259.199219 310.101562 258.804688 310.378906 258.398438 C 310.582031 258.101562 310.789062 257.804688 311 257.5 Z M 311 257.5 "/>
<path style=" stroke:none;fill-rule:nonzero;fill:rgb(1.568628%,48.235294%,73.725492%);fill-opacity:1;" d="M 145 181.5 C 147.199219 183.410156 147.902344 184.738281 148.5 187.5 C 146.300781 185.589844 145.597656 184.261719 145 181.5 Z M 145 181.5 "/>
<path style=" stroke:none;fill-rule:nonzero;fill:rgb(1.176471%,49.803922%,76.47059%);fill-opacity:1;" d="M 247 304 C 247.328125 304 247.660156 304 248 304 C 249.558594 306.078125 249.558594 306.078125 249.34375 307.65625 C 249.230469 307.933594 249.117188 308.214844 249 308.5 C 247.75 307.03125 247.265625 305.910156 247 304 Z M 247 304 "/>
<path style=" stroke:none;fill-rule:nonzero;fill:rgb(2.745098%,54.901963%,83.137256%);fill-opacity:1;" d="M 250 311 C 250.328125 311.328125 250.660156 311.660156 251 312 C 250.671875 312 250.339844 312 250 312 C 250 311.671875 250 311.339844 250 311 Z M 250 311 "/>
<path style=" stroke:none;fill-rule:nonzero;fill:rgb(2.352941%,55.29412%,83.92157%);fill-opacity:1;" d="M 246 305.5 C 246.328125 305.828125 246.660156 306.160156 247 306.5 C 246.671875 306.5 246.339844 306.5 246 306.5 C 246 306.171875 246 305.839844 246 305.5 Z M 246 305.5 "/>
<path style=" stroke:none;fill-rule:nonzero;fill:rgb(2.745098%,53.333336%,80.784315%);fill-opacity:1;" d="M 211 356 C 212 356.5 212 356.5 212 356.5 Z M 211 356 "/>
<path style=" stroke:none;fill-rule:nonzero;fill:rgb(2.352941%,54.901963%,82.352942%);fill-opacity:1;" d="M 222.5 339.5 C 223.5 340 223.5 340 223.5 340 Z M 222.5 339.5 "/>
<path style=" stroke:none;fill-rule:nonzero;fill:rgb(4.313726%,54.11765%,81.568629%);fill-opacity:1;" d="M 346 164.5 C 347 165 347 165 347 165 Z M 346 164.5 "/>
<path style=" stroke:none;fill-rule:nonzero;fill:rgb(4.313726%,54.901963%,82.352942%);fill-opacity:1;" d="M 179.5 164.5 C 180.5 165 180.5 165 180.5 165 Z M 179.5 164.5 "/>
<path style=" stroke:none;fill-rule:nonzero;fill:rgb(4.313726%,52.156866%,79.215688%);fill-opacity:1;" d="M 348 164 C 349 164.5 349 164.5 349 164.5 Z M 348 164 "/>
</g>
</svg>
